{"title":"Blow Family Ft. Trebol Clan - Latino (European Version) (h264/mp","uid":7011112,"size":47141477,"categoryP":"video","categoryS":"music_videos","magnet":"?xt=urn:btih:92fa70f45422cc35234a1a660209da4aa06b0a45&amp;dn=Blow+Family+Ft.+Trebol+Clan+-+Latino+%28European+Version%29+%28h264%2Fmp&amp;tr=udp%3A%2F%2Ftracker.openbittorrent.com%3A80&amp;tr=udp%3A%2F%2Fopen.demonii.com%3A1337&amp;tr=udp%3A%2F%2Ftracker.coppersurfer.tk%3A6969&amp;tr=udp%3A%2F%2Fexodus.desync.com%3A6969","seeders":1,"leechers":0,"uploader":"MusicVideos-HQ","files":1,"time":1328459528,"description":"General\n\n\nFormat                           : MPEG-4\nFormat profile                   : Base Media\nCodec ID                         : isom\nFile size                        : 45.0 MiB\nDuration                         : 3mn 58s\nOverall bit rate                 : 1 585 Kbps\nEncoded date                     : UTC 2012-02-03 16:27:02\nTagged date                      : UTC 2012-02-03 16:27:02\n\nVideo\nID                               : 1\nFormat                           : AVC\nFormat/Info                      : Advanced Video Codec\nFormat profile                   : &lt;a class=&quot;__cf_email__&quot; href=&quot;/cdn-cgi/l/email-protection&quot; data-cfemail=&quot;377f5e505f777b041907&quot;&gt;[email&amp;#160;protected]&lt;/a&gt;&lt;script cf-hash='f9e31' type=&quot;text/javascript&quot;&gt;\n/* &lt;![CDATA[ */!function(){try{var t=&quot;currentScript&quot;in document?document.currentScript:function(){for(var t=document.getElementsByTagName(&quot;script&quot;),e=t.length;e--;)if(t[e].getAttribute(&quot;cf-hash&quot;))return t[e]}();if(t&amp;&amp;t.previousSibling){var e,r,n,i,c=t.previousSibling,a=c.getAttribute(&quot;data-cfemail&quot;);if(a){for(e=&quot;&quot;,r=parseInt(a.substr(0,2),16),n=2;a.length-n;n+=2)i=parseInt(a.substr(n,2),16)^r,e+=String.fromCharCode(i);e=document.createTextNode(e),c.parentNode.replaceChild(e,c)}}}catch(u){}}();/* ]]&gt; */&lt;/script&gt;\nFormat settings, CABAC           : Yes\nFormat settings, ReFrames        : 2 frames\nCodec ID                         : avc1\nCodec ID/Info                    : Advanced Video Coding\nDuration                         : 3mn 58s\nBit rate mode                    : Variable\nBit rate                         : 1 521 Kbps\nMaximum bit rate                 : 5 698 Kbps\nWidth                            : 720 pixels\nHeight                           : 480 pixels\nDisplay aspect ratio             : 16:9\nOriginal display aspect ratio    : 16:9\nFrame rate mode                  : Constant\nFrame rate                       : 25.000 fps\nStandard                         : NTSC\nColor space                      : YUV\nChroma subsampling               : 4:2:0\nBit depth                        : 8 bits\nScan type                        : Progressive\nBits/(Pixel*Frame)               : 0.176\nStream size                      : 42.7 MiB (95%)\n\n\nAudio\nID                               : 2\nFormat                           : AAC\nFormat/Info                      : Advanced Audio Codec\nFormat profile                   : LC\nCodec ID                         : 40\nDuration                         : 3mn 57s\nBit rate mode                    : Variable\nBit rate                         : 73.7 Kbps\nMaximum bit rate                 : 86.9 Kbps\nChannel(s)                       : 2 channels\nChannel positions                : Front: L R\nSampling rate                    : 44.1 KHz\nCompression mode                 : Lossy\nStream size                      : 2.09 MiB (5%)\n\n\n","torrent":{"xt":"urn:btih:92fa70f45422cc35234a1a660209da4aa06b0a45","amp;dn":"Blow+Family+Ft.+Trebol+Clan+-+Latino+%28European+Version%29+%28h264%2Fmp","amp;tr":["udp%3A%2F%2Ftracker.openbittorrent.com%3A80","udp%3A%2F%2Fopen.demonii.com%3A1337","udp%3A%2F%2Ftracker.coppersurfer.tk%3A6969","udp%3A%2F%2Fexodus.desync.com%3A6969"],"infoHash":"92fa70f45422cc35234a1a660209da4aa06b0a45","infoHashBuffer":{"type":"Buffer","data":[146,250,112,244,84,34,204,53,35,74,26,102,2,9,218,74,160,107,10,69]},"announce":[],"urlList":[]}}